<?xml version="1.0" encoding="UTF-8"?>
<!DOCTYPE svg PUBLIC "-//W3C//DTD SVG 1.1//EN" "http://www.w3.org/Graphics/SVG/1.1/DTD/svg11.dtd">
<svg xmlns="http://www.w3.org/2000/svg"
  xml:space="preserve" 
  width="1.5em"
  height="1.5em"
  version="1.1"
  viewBox="0 0 1500 1500"
  xmlns:xlink="http://www.w3.org/1999/xlink">
  <defs>
    <style type="text/css">
path{stroke:#808080; stroke-width:62; fill:none}
#lf >g{transform-origin: top center}
#lfr{animation: lfr 5s infinite}
#lfl{animation: lfl 5s infinite}
@keyframes lfr{
  0%, 100%{transform: unset}
  25%, 75%{transform: rotate(45deg) translateX(calc(100% / 6))}
  50%{transform: translateX(calc(100% / -3))}}
@keyframes lfl{
  0%, 100%{transform: unset}
  25%, 75%{transform: rotate(-45deg) translateX(calc(100% / -6))}
  50%{transform: translateX(calc(100% / 3))}}
    </style>
  </defs>
  <g id="lf">
    <g id="lfl">
      <g>
        <path d="M750 1250c-276,0 -500,-224 -500,-500"/>
        <path d="M250 750c276,0 500,224 500,500"/>
      </g>
      <g>
        <path d="M250 750c0,-276 224,-500 500,-500"/>
        <path d="M750 250c0,276 -224,500 -500,500"/>
      </g>
    </g>
    <g id="lfr">
      <g>
        <path d="M750 250c276,0 500,224 500,500"/>
        <path d="M1250 750c-276,0 -500,-224 -500,-500"/>
      </g>
      <g>
        <path d="M1250 750c0,276 -224,500 -500,500"/>
        <path d="M750 1250c0,-276 224,-500 500,-500"/>
      </g>
    </g>
  </g>
</svg>
